<svg width="76" height="84" viewBox="0 0 76 84" fill="none" xmlns="http://www.w3.org/2000/svg">
<path d="M16.4151 16.8108C14.1413 14.5194 14.1413 10.8042 16.4151 8.51271C18.689 6.22125 22.3756 6.22125 24.6495 8.51271L71.2301 55.4539C73.504 57.7453 73.504 61.4605 71.2301 63.752C68.9563 66.0434 65.2696 66.0434 62.9958 63.752L16.4151 16.8108Z" fill="#D8D8D8"/>
<mask id="mask0_11_96" style="mask-type:luminance" maskUnits="userSpaceOnUse" x="14" y="6" width="59" height="60">
<path d="M16.4151 16.8108C14.1413 14.5194 14.1413 10.8042 16.4151 8.51271C18.689 6.22125 22.3756 6.22125 24.6495 8.51271L71.2301 55.4539C73.504 57.7453 73.504 61.4605 71.2301 63.752C68.9563 66.0434 65.2696 66.0434 62.9958 63.752L16.4151 16.8108Z" fill="#FFA0A0"/>
</mask>
<g mask="url(#mask0_11_96)">
<path d="M107.871 -28.4118H-31.871V112.412H107.871V-28.4118Z" fill="#D72029"/>
</g>
<path d="M38 50.2981L18.8269 69.6196C16.553 71.9111 12.8663 71.9111 10.5925 69.6196C8.31862 67.3282 8.31862 63.613 10.5925 61.3215L29.7656 42L10.5925 22.6785C8.31862 20.387 8.31862 16.6718 10.5925 14.3804C12.8663 12.0889 16.553 12.0889 18.8269 14.3804L38 33.7019L57.1731 14.3804C59.447 12.0889 63.1336 12.0889 65.4075 14.3804C67.6814 16.6718 67.6814 20.387 65.4075 22.6785L46.2344 42L65.4075 61.3215C67.6814 63.613 67.6814 67.3282 65.4075 69.6196C63.1336 71.9111 59.447 71.9111 57.1731 69.6196L38 50.2981Z" fill="black"/>
<mask id="mask1_11_96" style="mask-type:luminance" maskUnits="userSpaceOnUse" x="8" y="12" width="60" height="60">
<path d="M38 50.2981L18.8269 69.6196C16.553 71.9111 12.8663 71.9111 10.5925 69.6196C8.31862 67.3282 8.31862 63.613 10.5925 61.3215L29.7656 42L10.5925 22.6785C8.31862 20.387 8.31862 16.6718 10.5925 14.3804C12.8663 12.0889 16.553 12.0889 18.8269 14.3804L38 33.7019L57.1731 14.3804C59.447 12.0889 63.1336 12.0889 65.4075 14.3804C67.6814 16.6718 67.6814 20.387 65.4075 22.6785L46.2344 42L65.4075 61.3215C67.6814 63.613 67.6814 67.3282 65.4075 69.6196C63.1336 71.9111 59.447 71.9111 57.1731 69.6196L38 50.2981Z" fill="#7600FF"/>
</mask>
<g mask="url(#mask1_11_96)">
<path d="M-31.871 -28.4118L-31.871 112.412L107.871 112.412V-28.4118H-31.871Z" fill="black"/>
</g>
</svg>
