<svg width="16" height="16" viewBox="0 0 16 16" fill="none" xmlns="http://www.w3.org/2000/svg">
<path d="M14.2849 1.71888C13.9516 1.37821 13.4583 1.25221 12.9983 1.38554L2.27162 4.48488C1.78628 4.61954 1.44228 5.00421 1.34962 5.49221C1.25495 5.98954 1.58562 6.62154 2.01762 6.88554L5.37162 8.93354C5.71562 9.14421 6.15962 9.09154 6.44428 8.80621L10.2849 4.96554C10.4783 4.76488 10.7983 4.76488 10.9916 4.96554C11.1849 5.15821 11.1849 5.47221 10.9916 5.67221L7.14428 9.51288C6.85895 9.79821 6.80562 10.2409 7.01562 10.5855L9.06495 13.9522C9.30495 14.3515 9.71828 14.5789 10.1716 14.5789C10.2249 14.5789 10.2849 14.5789 10.3383 14.5715C10.8583 14.5055 11.2716 14.1515 11.4249 13.6515L14.6049 3.00554C14.7449 2.55221 14.6183 2.05888 14.2849 1.71888Z" fill="white"/>
<path opacity="0.4" fill-rule="evenodd" clip-rule="evenodd" d="M2.00701 11.2052C1.87901 11.2052 1.75101 11.1565 1.65368 11.0585C1.45835 10.8632 1.45835 10.5472 1.65368 10.3519L2.56368 9.4412C2.75901 9.24653 3.07568 9.24653 3.27101 9.4412C3.46568 9.63653 3.46568 9.9532 3.27101 10.1485L2.36035 11.0585C2.26301 11.1565 2.13501 11.2052 2.00701 11.2052ZM4.51448 12.0001C4.38648 12.0001 4.25848 11.9515 4.16115 11.8535C3.96581 11.6581 3.96581 11.3421 4.16115 11.1468L5.07115 10.2361C5.26648 10.0415 5.58315 10.0415 5.77848 10.2361C5.97315 10.4315 5.97315 10.7481 5.77848 10.9435L4.86781 11.8535C4.77048 11.9515 4.64248 12.0001 4.51448 12.0001ZM4.68361 14.3788C4.78095 14.4768 4.90895 14.5255 5.03695 14.5255C5.16495 14.5255 5.29295 14.4768 5.39028 14.3788L6.30095 13.4688C6.49561 13.2735 6.49561 12.9568 6.30095 12.7615C6.10561 12.5668 5.78895 12.5668 5.59361 12.7615L4.68361 13.6721C4.48828 13.8675 4.48828 14.1835 4.68361 14.3788Z" fill="white"/>
</svg>
